<?xml version="1.0" encoding="utf-8"?>
<!-- Generator: Adobe Illustrator 15.0.0, SVG Export Plug-In . SVG Version: 6.00 Build 0)  -->
<!DOCTYPE svg PUBLIC "-//W3C//DTD SVG 1.1//EN" "http://www.w3.org/Graphics/SVG/1.1/DTD/svg11.dtd">
<svg version="1.1" id="Layer_1" xmlns="http://www.w3.org/2000/svg" xmlns:xlink="http://www.w3.org/1999/xlink" x="0px" y="0px"
	 width="720px" height="480px" viewBox="0 0 720 480" enable-background="new 0 0 720 480" xml:space="preserve">
<g>
	<rect x="186.132" y="215.7" fill="#FFFFFF" width="36.255" height="29.319"/>
	<path d="M223.387,246.02h-38.255V214.7h38.255V246.02z M187.132,244.02h34.255V216.7h-34.255V244.02z"/>
</g>
<g>
	
		<rect x="190.708" y="212.954" transform="matrix(-0.3903 -0.9207 0.9207 -0.3903 72.4809 507.4249)" fill="#FFFFFF" width="27.104" height="33.516"/>
	<path d="M193.59,250.041l-11.359-26.796l32.7-13.862l11.359,26.796L193.59,250.041z M184.853,224.306l9.798,23.114l29.017-12.301
		l-9.797-23.114L184.853,224.306z"/>
</g>
<g>
	<path d="M192.045,230.999c-1.262-1.262-1.374-3.202-0.251-4.326c1.084-1.083,3.112-0.964,4.326,0.25
		c0.602,0.602,0.964,1.376,1.02,2.18c0.057,0.83-0.216,1.592-0.77,2.145c-0.5,0.501-1.188,0.777-1.933,0.777
		C193.569,232.026,192.697,231.652,192.045,230.999z M192.501,227.38c-0.733,0.734-0.621,2.04,0.251,2.912
		c0.836,0.835,2.206,0.955,2.911,0.25c0.346-0.346,0.516-0.832,0.479-1.369c-0.039-0.563-0.298-1.111-0.729-1.542
		c-0.466-0.466-1.081-0.734-1.685-0.734C193.249,226.897,192.813,227.069,192.501,227.38z"/>
	<g>
		
			<ellipse transform="matrix(0.7071 -0.7071 0.7071 0.7071 -103.5497 204.9214)" fill="#FFFFFF" cx="195.587" cy="227.456" rx="1.789" ry="2.204"/>
		<path d="M193.969,229.075c-1.054-1.054-1.186-2.638-0.293-3.531c0.863-0.863,2.512-0.722,3.53,0.294
			c0.497,0.497,0.808,1.127,0.875,1.774c0.072,0.686-0.135,1.31-0.582,1.756c-0.384,0.384-0.916,0.595-1.498,0.595
			C195.274,229.963,194.534,229.64,193.969,229.075z M194.382,226.251c-0.502,0.503-0.371,1.452,0.293,2.117
			c0.379,0.379,0.862,0.596,1.326,0.596c0.223,0,0.541-0.052,0.791-0.302c0.502-0.502,0.371-1.452-0.293-2.116
			c-0.379-0.379-0.862-0.596-1.326-0.596C194.95,225.949,194.632,226.001,194.382,226.251z"/>
	</g>
	<path d="M191.332,232.212c0.128,0,0.256-0.049,0.354-0.146l0.985-0.986c0.195-0.195,0.195-0.512,0-0.707s-0.512-0.195-0.707,0
		l-0.985,0.986c-0.195,0.195-0.195,0.512,0,0.707C191.076,232.164,191.204,232.212,191.332,232.212z"/>
</g>
<g>
	<path d="M208.355,223.497c-1.262-1.262-1.374-3.202-0.251-4.326c1.084-1.083,3.112-0.964,4.326,0.25
		c0.602,0.602,0.964,1.376,1.02,2.18c0.057,0.83-0.216,1.592-0.77,2.145c-0.5,0.501-1.188,0.777-1.933,0.777
		C209.879,224.524,209.007,224.15,208.355,223.497z M208.811,219.878c-0.733,0.734-0.621,2.04,0.251,2.912
		c0.836,0.835,2.206,0.955,2.911,0.25c0.346-0.346,0.516-0.832,0.479-1.369c-0.039-0.563-0.298-1.111-0.729-1.542
		c-0.466-0.466-1.081-0.734-1.685-0.734C209.559,219.395,209.123,219.567,208.811,219.878z"/>
	<g>
		
			<ellipse transform="matrix(0.7071 -0.7071 0.7071 0.7071 -93.468 214.2571)" fill="#FFFFFF" cx="211.897" cy="219.954" rx="1.789" ry="2.204"/>
		<path d="M210.279,221.573c-1.054-1.054-1.186-2.638-0.293-3.531c0.863-0.863,2.512-0.722,3.53,0.294
			c0.497,0.497,0.808,1.127,0.875,1.774c0.072,0.686-0.135,1.31-0.582,1.756c-0.384,0.384-0.916,0.595-1.498,0.595
			C211.584,222.461,210.844,222.138,210.279,221.573z M210.692,218.749c-0.502,0.503-0.371,1.452,0.293,2.117
			c0.379,0.379,0.862,0.596,1.326,0.596c0.223,0,0.541-0.052,0.791-0.302c0.502-0.502,0.371-1.452-0.293-2.116
			c-0.379-0.379-0.862-0.596-1.326-0.596C211.26,218.447,210.942,218.5,210.692,218.749z"/>
	</g>
	<path d="M207.642,224.71c0.128,0,0.256-0.049,0.354-0.146l0.985-0.986c0.195-0.195,0.195-0.512,0-0.707s-0.512-0.195-0.707,0
		l-0.985,0.986c-0.195,0.195-0.195,0.512,0,0.707C207.386,224.662,207.514,224.71,207.642,224.71z"/>
</g>
<g>
	<path d="M202.872,238.438c-1.262-1.262-1.374-3.202-0.251-4.326c1.084-1.083,3.112-0.964,4.326,0.25
		c0.602,0.602,0.964,1.376,1.02,2.18c0.057,0.83-0.216,1.592-0.77,2.145c-0.5,0.501-1.188,0.777-1.933,0.777
		C204.396,239.465,203.524,239.091,202.872,238.438z M203.328,234.819c-0.733,0.734-0.621,2.04,0.251,2.912
		c0.836,0.835,2.206,0.955,2.911,0.25c0.346-0.346,0.516-0.832,0.479-1.369c-0.039-0.563-0.298-1.111-0.729-1.542
		c-0.466-0.466-1.081-0.734-1.685-0.734C204.075,234.336,203.64,234.508,203.328,234.819z"/>
	<g>
		
			<ellipse transform="matrix(0.7071 -0.7071 0.7071 0.7071 -105.6388 214.7558)" fill="#FFFFFF" cx="206.414" cy="234.895" rx="1.789" ry="2.204"/>
		<path d="M204.795,236.514c-1.054-1.054-1.186-2.638-0.293-3.531c0.863-0.863,2.512-0.722,3.53,0.294
			c0.497,0.497,0.808,1.127,0.875,1.774c0.072,0.686-0.135,1.31-0.582,1.756c-0.384,0.384-0.916,0.595-1.498,0.595
			C206.101,237.402,205.36,237.079,204.795,236.514z M205.209,233.69c-0.502,0.503-0.371,1.452,0.293,2.117
			c0.379,0.379,0.862,0.596,1.326,0.596c0.223,0,0.541-0.052,0.791-0.302c0.502-0.502,0.371-1.452-0.293-2.116
			c-0.379-0.379-0.862-0.596-1.326-0.596C205.777,233.388,205.458,233.44,205.209,233.69z"/>
	</g>
	<path d="M202.158,239.651c0.128,0,0.256-0.049,0.354-0.146l0.985-0.986c0.195-0.195,0.195-0.512,0-0.707s-0.512-0.195-0.707,0
		l-0.985,0.986c-0.195,0.195-0.195,0.512,0,0.707C201.902,239.603,202.03,239.651,202.158,239.651z"/>
</g>
<g>
	<path d="M249.978,239.526v-15h-0.072l-5.976,15h-1.56l-6-15h-0.048v15h-2.592v-17.76h4.08l5.328,13.608l5.352-13.608h4.08v17.76
		H249.978z"/>
	<path d="M266.874,239.526v-2.064h-0.048c-0.48,0.816-1.124,1.42-1.932,1.812c-0.808,0.392-1.668,0.588-2.58,0.588
		c-1.12,0-2.12-0.196-3-0.588c-0.88-0.392-1.62-0.912-2.22-1.56s-1.056-1.388-1.368-2.22c-0.312-0.832-0.468-1.688-0.468-2.568
		c0-0.816,0.144-1.64,0.432-2.472c0.288-0.832,0.724-1.588,1.308-2.268s1.316-1.236,2.196-1.668c0.879-0.432,1.92-0.648,3.12-0.648
		c0.928,0,1.792,0.188,2.592,0.564c0.8,0.376,1.44,0.932,1.92,1.668h0.048v-1.872h2.496v13.296H266.874z M266.922,232.902
		c0-0.704-0.12-1.348-0.36-1.932c-0.24-0.583-0.568-1.083-0.984-1.5c-0.416-0.416-0.904-0.74-1.464-0.972
		c-0.561-0.232-1.16-0.348-1.8-0.348c-0.768,0-1.436,0.148-2.004,0.444c-0.568,0.296-1.044,0.676-1.428,1.14
		c-0.384,0.464-0.668,0.976-0.852,1.536c-0.184,0.56-0.276,1.104-0.276,1.632c0,0.608,0.111,1.192,0.336,1.752
		c0.224,0.561,0.536,1.056,0.936,1.488c0.399,0.432,0.879,0.78,1.44,1.044c0.56,0.264,1.167,0.396,1.824,0.396
		s1.264-0.124,1.824-0.372c0.56-0.248,1.048-0.584,1.464-1.008c0.416-0.423,0.744-0.919,0.984-1.488
		C266.802,234.146,266.922,233.542,266.922,232.902z"/>
	<path d="M273.065,226.23h2.28v2.04h0.048c0.608-0.864,1.332-1.48,2.172-1.848c0.84-0.368,1.692-0.552,2.556-0.552
		c1.12,0,2.112,0.208,2.976,0.624c0.864,0.417,1.584,0.96,2.16,1.632c0.576,0.672,1.012,1.44,1.308,2.304
		c0.296,0.864,0.444,1.736,0.444,2.616c0,0.848-0.152,1.676-0.456,2.484c-0.304,0.808-0.744,1.536-1.32,2.184
		c-0.576,0.648-1.28,1.168-2.112,1.56c-0.832,0.392-1.776,0.588-2.832,0.588c-0.704,0-1.316-0.08-1.836-0.24
		c-0.52-0.16-0.972-0.352-1.356-0.576c-0.384-0.224-0.696-0.468-0.936-0.732c-0.24-0.264-0.424-0.5-0.552-0.708h-0.048v6.36h-2.496
		V226.23z M284.514,232.902c0-0.592-0.112-1.172-0.336-1.74c-0.225-0.568-0.537-1.076-0.936-1.524c-0.4-0.448-0.88-0.808-1.44-1.08
		c-0.561-0.272-1.176-0.408-1.848-0.408c-0.656,0-1.256,0.132-1.8,0.396s-1.012,0.612-1.404,1.044s-0.696,0.932-0.912,1.5
		c-0.216,0.568-0.324,1.156-0.324,1.764c0,0.672,0.116,1.296,0.348,1.872c0.232,0.576,0.552,1.076,0.96,1.5
		c0.408,0.424,0.888,0.756,1.44,0.996c0.552,0.24,1.14,0.36,1.764,0.36c0.592,0,1.156-0.112,1.692-0.336s1.012-0.54,1.428-0.948
		s0.748-0.9,0.996-1.476C284.389,234.246,284.514,233.606,284.514,232.902z"/>
	<path d="M289.481,239.526v-17.76h8.976v2.376h-6.384v5.328h6.384v2.376h-6.384v7.68H289.481z"/>
	<path d="M311.537,239.526v-2.064h-0.048c-0.48,0.816-1.124,1.42-1.932,1.812c-0.808,0.392-1.668,0.588-2.58,0.588
		c-1.12,0-2.12-0.196-3-0.588c-0.88-0.392-1.62-0.912-2.22-1.56s-1.056-1.388-1.368-2.22c-0.312-0.832-0.468-1.688-0.468-2.568
		c0-0.816,0.144-1.64,0.432-2.472c0.288-0.832,0.724-1.588,1.308-2.268s1.316-1.236,2.196-1.668c0.879-0.432,1.92-0.648,3.12-0.648
		c0.928,0,1.792,0.188,2.592,0.564c0.8,0.376,1.44,0.932,1.92,1.668h0.048v-1.872h2.496v13.296H311.537z M311.585,232.902
		c0-0.704-0.12-1.348-0.36-1.932c-0.24-0.583-0.568-1.083-0.984-1.5c-0.416-0.416-0.904-0.74-1.464-0.972
		c-0.561-0.232-1.16-0.348-1.8-0.348c-0.768,0-1.436,0.148-2.004,0.444c-0.568,0.296-1.044,0.676-1.428,1.14
		c-0.384,0.464-0.668,0.976-0.852,1.536c-0.184,0.56-0.276,1.104-0.276,1.632c0,0.608,0.111,1.192,0.336,1.752
		c0.224,0.561,0.536,1.056,0.936,1.488c0.399,0.432,0.879,0.78,1.44,1.044c0.56,0.264,1.167,0.396,1.824,0.396
		s1.264-0.124,1.824-0.372c0.56-0.248,1.048-0.584,1.464-1.008c0.416-0.423,0.744-0.919,0.984-1.488
		C311.465,234.146,311.585,233.542,311.585,232.902z"/>
	<path d="M322.481,229.758c-0.08-0.543-0.268-0.948-0.564-1.212s-0.676-0.396-1.14-0.396c-0.464,0-0.84,0.132-1.128,0.396
		c-0.288,0.264-0.432,0.604-0.432,1.02c0,0.272,0.056,0.5,0.168,0.684c0.112,0.184,0.264,0.34,0.456,0.468
		c0.192,0.128,0.412,0.236,0.66,0.324s0.508,0.172,0.78,0.252c0.255,0.08,0.608,0.2,1.056,0.36c0.448,0.16,0.892,0.404,1.332,0.732
		c0.44,0.328,0.82,0.752,1.14,1.272c0.32,0.521,0.48,1.172,0.48,1.956c0,0.592-0.1,1.144-0.3,1.656
		c-0.2,0.512-0.492,0.96-0.876,1.344c-0.384,0.384-0.852,0.688-1.404,0.912c-0.552,0.224-1.18,0.336-1.884,0.336
		c-0.417,0-0.896-0.072-1.44-0.216c-0.544-0.144-1.056-0.396-1.536-0.756c-0.48-0.36-0.888-0.844-1.224-1.452
		s-0.504-1.368-0.504-2.28h2.496c0.048,0.752,0.26,1.344,0.636,1.776c0.376,0.432,0.916,0.648,1.62,0.648
		c0.56,0,1.02-0.164,1.38-0.492c0.36-0.328,0.54-0.771,0.54-1.332c0-0.288-0.06-0.536-0.18-0.744
		c-0.12-0.208-0.284-0.388-0.492-0.54c-0.208-0.152-0.456-0.288-0.744-0.408c-0.288-0.12-0.592-0.236-0.912-0.348
		c-0.369-0.128-0.768-0.276-1.2-0.444s-0.836-0.4-1.212-0.696c-0.376-0.295-0.692-0.672-0.948-1.128s-0.384-1.036-0.384-1.74
		c0-0.496,0.1-0.972,0.3-1.428s0.48-0.864,0.84-1.224c0.36-0.36,0.8-0.648,1.32-0.864c0.52-0.216,1.092-0.324,1.716-0.324
		c0.384,0,0.808,0.064,1.272,0.192s0.9,0.344,1.308,0.648c0.408,0.304,0.756,0.704,1.044,1.2c0.288,0.496,0.44,1.112,0.456,1.848
		H322.481z"/>
	<path d="M330.569,239.526h-2.496V228.51h-1.8v-2.28h1.8v-4.464h2.496v4.464h2.184v2.28h-2.184V239.526z"/>
	<path d="M336.257,233.958c0.16,0.64,0.396,1.188,0.708,1.644s0.672,0.832,1.08,1.128c0.408,0.296,0.835,0.512,1.284,0.648
		c0.448,0.136,0.88,0.204,1.296,0.204c0.928,0,1.716-0.228,2.364-0.684s1.124-0.972,1.428-1.548h2.496
		c-0.32,0.864-0.736,1.584-1.248,2.16c-0.512,0.576-1.06,1.036-1.644,1.38c-0.584,0.344-1.184,0.592-1.8,0.744
		c-0.616,0.152-1.18,0.228-1.692,0.228c-0.944,0-1.828-0.188-2.652-0.564c-0.824-0.375-1.54-0.884-2.148-1.524
		c-0.608-0.64-1.088-1.384-1.44-2.232s-0.528-1.744-0.528-2.688c0-0.992,0.18-1.916,0.54-2.772s0.848-1.596,1.464-2.22
		c0.616-0.624,1.336-1.112,2.16-1.464c0.824-0.352,1.708-0.528,2.652-0.528c0.896,0,1.752,0.172,2.568,0.516
		c0.816,0.344,1.536,0.82,2.16,1.428c0.624,0.608,1.12,1.328,1.488,2.16s0.552,1.736,0.552,2.712c0,0.224-0.008,0.472-0.024,0.744
		c-0.016,0.272-0.032,0.448-0.048,0.528H336.257z M344.849,232.038c-0.032-0.48-0.16-0.956-0.384-1.428
		c-0.225-0.472-0.528-0.888-0.912-1.248s-0.832-0.652-1.344-0.876c-0.512-0.224-1.064-0.336-1.656-0.336
		c-0.608,0-1.164,0.112-1.668,0.336c-0.504,0.224-0.948,0.516-1.332,0.876s-0.688,0.776-0.912,1.248
		c-0.224,0.472-0.352,0.948-0.384,1.428H344.849z"/>
	<path d="M359.129,239.526v-7.224c0-0.256-0.016-0.616-0.048-1.08c-0.032-0.464-0.152-0.924-0.36-1.38s-0.536-0.852-0.984-1.188
		c-0.448-0.336-1.088-0.504-1.92-0.504c-1.056,0-1.904,0.352-2.544,1.056c-0.64,0.704-0.96,1.728-0.96,3.072v7.248h-2.496V226.23
		h2.328v1.416h0.048c0.336-0.448,0.704-0.792,1.104-1.032c0.4-0.24,0.784-0.416,1.152-0.528c0.368-0.112,0.7-0.176,0.996-0.192
		c0.296-0.016,0.508-0.024,0.636-0.024c1.04,0,1.964,0.208,2.772,0.624c0.808,0.417,1.452,1,1.932,1.752
		c0.272,0.432,0.476,0.92,0.612,1.464c0.137,0.544,0.213,1.192,0.229,1.944v7.872H359.129z"/>
</g>
</svg>
